<svg width="156.70123291015625px" height="138.830029296875px" xmlns="http://www.w3.org/2000/svg" viewBox="171.64938354492188 5.584985351562494 156.70123291015625 138.830029296875" style="background: rgba(0, 0, 0, 0);" preserveAspectRatio="xMidYMid"><defs><filter id="editing-hole" x="-100%" y="-100%" width="300%" height="300%"><feFlood flood-color="#000000" result="black"></feFlood><feMorphology operator="dilate" radius="2" in="SourceGraphic" result="erode"></feMorphology><feGaussianBlur in="erode" stdDeviation="4" result="blur"></feGaussianBlur><feOffset in="blur" dx="2" dy="2" result="offset"></feOffset><feComposite operator="atop" in="offset" in2="black" result="merge"></feComposite><feComposite operator="in" in="merge" in2="SourceGraphic" result="inner-shadow"></feComposite></filter></defs><g filter="url(#editing-hole)"><g transform="translate(201.5828117132187, 101.25)"><path d="M16.65 0L0.60 0L9.75-49.27L9.75-49.27Q17.18-50.10 28.01-50.10L28.01-50.10L28.01-50.10Q38.85-50.10 43.88-46.95L43.88-46.95L43.88-46.95Q48.90-43.80 48.90-37.46L48.90-37.46L48.90-37.46Q48.90-31.13 45.64-27.15L45.64-27.15L45.64-27.15Q42.38-23.18 36.75-21.90L36.75-21.90L36.75-21.90Q38.02-15.67 40.95-10.65L40.95-10.65L40.95-10.65Q43.65-5.92 46.80-4.42L46.80-4.42L46.80-4.42Q45.67-1.27 43.39 0.11L43.39 0.11L43.39 0.11Q41.10 1.50 37.84 1.50L37.84 1.50L37.84 1.50Q34.57 1.50 32.02-0.41L32.02-0.41L32.02-0.41Q29.47-2.32 27.45-5.85L27.45-5.85L27.45-5.85Q23.18-13.50 22.72-25.57L22.72-25.57L23.25-25.57L23.25-25.57Q28.80-25.72 31.57-28.61L31.57-28.61L31.57-28.61Q34.35-31.50 34.35-37.57L34.35-37.57L34.35-37.57Q34.35-45.15 27.97-45.45L27.97-45.45L26.32-45.45L26.32-45.45Q25.65-45.45 25.27-45.38L25.27-45.38L16.65 0ZM53.47-46.50L53.47-46.50L53.47-46.50Q55.65-51 61.69-51L61.69-51L61.69-51Q67.72-51 70.54-47.51L70.54-47.51L70.54-47.51Q73.35-44.02 73.35-36L73.35-36L73.35-9.22L91.57-49.42L100.50-49.42L77.17 0L59.62 0L57.37-36L57.37-36Q57.15-39.98 56.06-42.67L56.06-42.67L56.06-42.67Q54.97-45.38 53.47-46.50Z" fill="#05386b"></path></g></g><style>text {
  font-size: 64px;
  font-family: Arial Black;
  dominant-baseline: central;
  text-anchor: middle;
}</style></svg>