<svg width="105.68002929687499px" height="94.4175048828125px" xmlns="http://www.w3.org/2000/svg" viewBox="197.1599853515625 27.791247558593753 105.68002929687499 94.4175048828125" style="background: rgba(0, 0, 0, 0);" preserveAspectRatio="xMidYMid"><defs><filter id="editing-hole" x="-100%" y="-100%" width="300%" height="300%"><feFlood flood-color="#000000" result="black"></feFlood><feMorphology operator="dilate" radius="2" in="SourceGraphic" result="erode"></feMorphology><feGaussianBlur in="erode" stdDeviation="4" result="blur"></feGaussianBlur><feOffset in="blur" dx="2" dy="2" result="offset"></feOffset><feComposite operator="atop" in="offset" in2="black" result="merge"></feComposite><feComposite operator="in" in="merge" in2="SourceGraphic" result="inner-shadow"></feComposite></filter></defs><g filter="url(#editing-hole)"><g transform="translate(219.6637507379055, 91.44999885559082)"><path d="M10.43 0L0.38 0L6.11-30.88L6.11-30.88Q10.76-31.40 17.55-31.40L17.55-31.40L17.55-31.40Q24.35-31.40 27.50-29.42L27.50-29.42L27.50-29.42Q30.64-27.45 30.64-23.48L30.64-23.48L30.64-23.48Q30.64-19.50 28.60-17.01L28.60-17.01L28.60-17.01Q26.55-14.52 23.03-13.72L23.03-13.72L23.03-13.72Q23.83-9.82 25.66-6.67L25.66-6.67L25.66-6.67Q27.35-3.71 29.33-2.77L29.33-2.77L29.33-2.77Q28.62-0.80 27.19 0.07L27.19 0.07L27.19 0.07Q25.76 0.94 23.71 0.94L23.71 0.94L23.71 0.94Q21.67 0.94 20.07-0.26L20.07-0.26L20.07-0.26Q18.47-1.46 17.20-3.67L17.20-3.67L17.20-3.67Q14.52-8.46 14.24-16.03L14.24-16.03L14.57-16.03L14.57-16.03Q18.05-16.12 19.79-17.93L19.79-17.93L19.79-17.93Q21.53-19.74 21.53-23.55L21.53-23.55L21.53-23.55Q21.53-28.29 17.53-28.48L17.53-28.48L16.50-28.48L16.50-28.48Q16.07-28.48 15.84-28.43L15.84-28.43L10.43 0ZM33.51-29.14L33.51-29.14L33.51-29.14Q34.87-31.96 38.66-31.96L38.66-31.96L38.66-31.96Q42.44-31.96 44.20-29.77L44.20-29.77L44.20-29.77Q45.97-27.59 45.97-22.56L45.97-22.56L45.97-5.78L57.39-30.97L62.98-30.97L48.36 0L37.37 0L35.95-22.56L35.95-22.56Q35.81-25.05 35.13-26.74L35.13-26.74L35.13-26.74Q34.45-28.43 33.51-29.14Z" fill="#05386b"></path></g></g><style>text {
  font-size: 64px;
  font-family: Arial Black;
  dominant-baseline: central;
  text-anchor: middle;
}</style></svg>